<svg width="79" height="76" viewBox="0 0 79 76" fill="none" xmlns="http://www.w3.org/2000/svg">
<path d="M14.91 61.7499H10.91V12.9099H6L0 8.90991H14.91V61.7499Z" fill="#253746"/>
<path d="M78.25 65.78H8.45996L2.45996 61.78H72.25L78.25 65.78Z" fill="#253746"/>
<path d="M57.5996 59H18.8896V0H69.5996V35L65.5996 31V4H22.8896V55H53.5996L57.5996 59Z" fill="#253746"/>
<path d="M59.25 9H29.25V28H59.25V9Z" fill="#253746"/>
<path d="M59.25 34H29.25V38H55.25L59.25 34Z" fill="#253746"/>
<path d="M53.25 44H29.25V48H49.25L53.25 44Z" fill="#253746"/>
<path fill-rule="evenodd" clip-rule="evenodd" d="M77.25 48C77.25 54.0751 72.3251 59 66.25 59C60.1749 59 55.25 54.0751 55.25 48C55.25 41.9249 60.1749 37 66.25 37C69.5439 37 72.4997 38.4478 74.5156 40.7418L64.95 49.14L61.55 46.03L58.85 48.98L64.9 54.51L76.5903 44.2393C77.0172 45.4126 77.25 46.6791 77.25 48Z" fill="#EE2737"/>
<path d="M32.3397 64.2801C32.6608 65.3083 32.756 66.3938 32.6188 67.4622C32.4816 68.5306 32.1153 69.5568 31.5449 70.4705C30.9745 71.3843 30.2135 72.1641 29.3139 72.7565C28.4143 73.349 27.3973 73.7402 26.3325 73.9033C25.2678 74.0665 24.1804 73.9977 23.1446 73.7018C22.1089 73.4058 21.1493 72.8896 20.3315 72.1886C19.5137 71.4875 18.8569 70.6181 18.4062 69.6398C17.9554 68.6614 17.7212 67.5973 17.7197 66.5201C17.7217 65.6963 17.8602 64.8785 18.1297 64.1001" stroke="#253746" stroke-width="4" stroke-miterlimit="10"/>
<path d="M66.3804 64.2799C66.7329 65.4047 66.8146 66.5968 66.6188 67.7591C66.423 68.9214 65.9554 70.021 65.2539 70.9683C64.5524 71.9155 63.6371 72.6836 62.5824 73.2098C61.5277 73.7361 60.3636 74.0057 59.1849 73.9966C58.0063 73.9875 56.8464 73.6999 55.8 73.1575C54.7536 72.615 53.8502 71.8328 53.1634 70.8749C52.4767 69.9169 52.0261 68.8102 51.8483 67.645C51.6705 66.4798 51.7706 65.2891 52.1404 64.1699" stroke="#253746" stroke-width="4" stroke-miterlimit="10"/>
</svg>
