<svg width="74" height="76" viewBox="0 0 74 76" fill="none" xmlns="http://www.w3.org/2000/svg">
<path d="M63.2895 38.9744V0H0V71.1282V74.0513V75.0256L8.03289 71.401L15.1018 75.2985L22.1611 71.401L29.2203 75.2985L36.2795 71.401L43.3387 75.2985L50.3882 71.401L56.5029 74.7821L58.3918 71.3718L50.3882 66.9579L43.3387 70.8554L36.2795 66.9579L29.2203 70.8554L22.1611 66.9579L15.1018 70.8554L8.03289 66.9579L3.89474 69.1015V3.89744H59.3947V42.8718L63.2895 38.9744Z" fill="#253746"/>
<path d="M45.7632 27.2822H20.4961L24.3908 23.3848H49.6579L45.7632 27.2822Z" fill="#253746"/>
<path d="M45.7632 41.8974H20.4961L24.3908 38H49.6579L45.7632 41.8974Z" fill="#253746"/>
<path d="M45.7632 56.5127H20.4961L24.3908 52.6152H49.6579L45.7632 56.5127Z" fill="#253746"/>
<path d="M16.3479 23.3848H12.4531V27.2822H16.3479V23.3848Z" fill="#253746"/>
<path d="M16.3479 38H12.4531V41.8974H16.3479V38Z" fill="#253746"/>
<path d="M16.3479 52.6152H12.4531V56.5127H16.3479V52.6152Z" fill="#253746"/>
<path fill-rule="evenodd" clip-rule="evenodd" d="M74.0003 63.8206C74.0003 70.5471 68.5511 76.0001 61.8293 76.0001C55.1074 76.0001 49.6582 70.5471 49.6582 63.8206C49.6582 57.0941 55.1074 51.6411 61.8293 51.6411C68.5511 51.6411 74.0003 57.0941 74.0003 63.8206ZM62.3162 55.5386V63.3334H70.1056C70.1056 61.2661 69.285 59.2835 67.8242 57.8216C66.3633 56.3598 64.3821 55.5386 62.3162 55.5386Z" fill="#EE2737"/>
<path d="M56.4736 47.7437H67.1842" stroke="#EE2737" stroke-width="4" stroke-miterlimit="10"/>
<path d="M61.3421 0H0V12.6667H61.3421V0Z" fill="#253746"/>
</svg>
