<svg width="90" height="78" viewBox="0 0 90 78" fill="none" xmlns="http://www.w3.org/2000/svg">
<path d="M30.9448 75.7509C34.1492 75.7509 36.747 73.1531 36.747 69.9487C36.747 66.7442 34.1492 64.1465 30.9448 64.1465C27.7403 64.1465 25.1426 66.7442 25.1426 69.9487C25.1426 73.1531 27.7403 75.7509 30.9448 75.7509Z" stroke="#253746" stroke-width="3.86813" stroke-miterlimit="10"/>
<path d="M60.9233 75.7509C64.1278 75.7509 66.7255 73.1531 66.7255 69.9487C66.7255 66.7442 64.1278 64.1465 60.9233 64.1465C57.7188 64.1465 55.1211 66.7442 55.1211 69.9487C55.1211 73.1531 57.7188 75.7509 60.9233 75.7509Z" stroke="#253746" stroke-width="3.86813" stroke-miterlimit="10"/>
<path d="M75.0418 63.1795H20.5011L8.99341 10.863H0L3.86813 7.09155H12.0879L23.5956 59.3113H71.1736L75.0418 63.1795Z" fill="#253746"/>
<path d="M71.7541 53.6059H18.8574V49.7377H68.5629L70.9805 36.4894L75.4289 33.9751L71.7541 53.6059Z" fill="#253746"/>
<path d="M43.4196 19.6631H12.5713V15.7949H47.2878L43.4196 19.6631Z" fill="#253746"/>
<path d="M78.7167 26.8191C76.2024 29.6235 72.6244 31.2674 68.6596 31.2674C61.2134 31.2674 55.1211 25.2718 55.1211 17.8257V15.7949" stroke="#EE2737" stroke-width="3.86813" stroke-miterlimit="10"/>
<path d="M58.0225 7.18826C60.5367 4.09376 64.5016 2.15969 68.8532 2.2564C76.2994 2.4498 82.1016 8.54211 82.1016 15.8916C82.1016 15.9883 82.295 19.5663 82.295 19.663" stroke="#EE2737" stroke-width="3.86813" stroke-miterlimit="10"/>
<path d="M70.5938 40.9377H18.374V51.5751H70.5938V40.9377Z" fill="#253746"/>
<path d="M87.9999 15.7949L82.1977 21.5971L76.3955 15.7949" stroke="#EE2737" stroke-width="3.86813" stroke-miterlimit="10"/>
<path d="M49.3184 18.696L55.1206 12.8938L60.9228 18.696" stroke="#EE2737" stroke-width="3.86813" stroke-miterlimit="10"/>
<path d="M30.9453 32.2344V45.7728" stroke="#253746" stroke-width="3.86813" stroke-miterlimit="10"/>
<path d="M43.5166 28.3662V45.7728" stroke="#253746" stroke-width="3.86813" stroke-miterlimit="10"/>
<path d="M56.0879 32.2344V45.7728" stroke="#253746" stroke-width="3.86813" stroke-miterlimit="10"/>
</svg>
