<svg width="88" height="88" viewBox="0 0 88 88" fill="none" xmlns="http://www.w3.org/2000/svg">
<path d="M72.1 45.9999V30.2766H5" stroke="#253746" stroke-width="4" stroke-miterlimit="10"/>
<path d="M81.4996 47.1941H64.0996C61.3382 47.1941 59.0996 49.4327 59.0996 52.1941V66.1019" stroke="#253746" stroke-width="4" stroke-miterlimit="10"/>
<path d="M63.4004 20.3252H82.1004V77.0485H74.1004" stroke="#253746" stroke-width="4" stroke-miterlimit="10"/>
<path d="M72.0996 65.8033V83.0193H5.09961V29.381L11.3996 20.0266H26.8996" stroke="#253746" stroke-width="4" stroke-miterlimit="10"/>
<path d="M67.8 59.0365C69.6225 59.0365 71.1 57.5662 71.1 55.7525C71.1 53.9388 69.6225 52.4685 67.8 52.4685C65.9775 52.4685 64.5 53.9388 64.5 55.7525C64.5 57.5662 65.9775 59.0365 67.8 59.0365Z" fill="#253746"/>
<path d="M24.4002 53.6625C26.9959 53.6625 29.1002 51.5684 29.1002 48.9853C29.1002 46.4022 26.9959 44.3081 24.4002 44.3081C21.8045 44.3081 19.7002 46.4022 19.7002 48.9853C19.7002 51.5684 21.8045 53.6625 24.4002 53.6625Z" stroke="#EE2737" stroke-width="4" stroke-miterlimit="10"/>
<path d="M43.7996 67.9928C46.1192 67.9928 47.9996 66.1215 47.9996 63.8132C47.9996 61.5048 46.1192 59.6335 43.7996 59.6335C41.48 59.6335 39.5996 61.5048 39.5996 63.8132C39.5996 66.1215 41.48 67.9928 43.7996 67.9928Z" stroke="#EE2737" stroke-width="4" stroke-miterlimit="10"/>
<path d="M26.0996 30.5753L64.3996 12.9612L70.0996 29.3811" fill="#253746"/>
<path d="M54.4003 15.051L45.3003 5L11.7344 28.3859L25.0003 29.182" fill="#253746"/>
<path d="M82.0996 66.1019H63.0996L67.0996 62.1213H82.0996V66.1019Z" fill="#253746"/>
<path d="M22.7002 70.2814V64.6091L43.7002 43.8105V49.3834L22.7002 70.2814Z" fill="#EE2737"/>
</svg>
