<svg width="87" height="85" viewBox="0 0 87 85" fill="none" xmlns="http://www.w3.org/2000/svg">
<path d="M7.79199 72.5261V50.8728H54.1149" stroke="#253746" stroke-width="4" stroke-miterlimit="10"/>
<path d="M13.8306 74.4813H0L3.89596 70.571H13.8306V74.4813Z" fill="#253746"/>
<path d="M22.8306 84.3102H9L12.896 80.3999H26.7266L22.8306 84.3102Z" fill="#253746"/>
<path d="M70.5943 84.3102H56.7539L60.6499 80.3999H74.4902L70.5943 84.3102Z" fill="#253746"/>
<path d="M63.1343 72.5847H30.4277" stroke="#253746" stroke-width="4" stroke-miterlimit="10"/>
<path d="M55.4785 30.686H71.7636L85.0001 48.3997V72.3698H78.5231" stroke="#253746" stroke-width="4" stroke-miterlimit="10"/>
<path d="M56.7055 72.3405H52.8096V24.0204L56.7055 19.5515V72.3405Z" fill="#253746"/>
<path d="M76.3026 38.3892H64.0498V55.7606H83.8997" stroke="#253746" stroke-width="4" stroke-miterlimit="10"/>
<path d="M22.6842 82.3311C27.2511 82.3311 30.9534 78.6153 30.9534 74.0315C30.9534 69.4478 27.2511 65.7319 22.6842 65.7319C18.1173 65.7319 14.415 69.4478 14.415 74.0315C14.415 78.6153 18.1173 82.3311 22.6842 82.3311Z" stroke="#253746" stroke-width="4" stroke-miterlimit="10"/>
<path d="M71.2184 82.3311C75.7853 82.3311 79.4875 78.6153 79.4875 74.0315C79.4875 69.4478 75.7853 65.7319 71.2184 65.7319C66.6514 65.7319 62.9492 69.4478 62.9492 74.0315C62.9492 78.6153 66.6514 82.3311 71.2184 82.3311Z" stroke="#253746" stroke-width="4" stroke-miterlimit="10"/>
<path d="M37.9464 0L22.4697 20.314H31.0408L27.2325 33.4526L43.8975 14.5756H33.8946L37.9464 0Z" fill="#EE2737"/>
<path d="M53.6376 39.3179H5.91211V52.0263H53.6376V39.3179Z" fill="#253746"/>
</svg>
