<svg width="88" height="88" viewBox="0 0 88 88" fill="none" xmlns="http://www.w3.org/2000/svg">
<path d="M4 72V11C4 8.2 6.2 6 9 6H16V71H9C6.2 71 4 73.2 4 76V77" stroke="#253746" stroke-width="4" stroke-miterlimit="10"/>
<path d="M66 85H9C5.1 85 2 81.9 2 78V71H6V78C6 79.7 7.3 81 9 81H62L66 85Z" fill="#253746"/>
<path d="M82 67L78 63V22H22L26 18H82V67Z" fill="#253746"/>
<path d="M17 7H5V70H17V7Z" fill="#253746"/>
<path d="M79.2996 50.2H64.9996L56.0996 59.0999H44.9996L37.5996 66.5999L44.9996 74V82.1999" stroke="#253746" stroke-width="4" stroke-miterlimit="10"/>
<path d="M15 37L26.3 46.7001L30.5 38.5L42 36L37.2 26.8V19.8" stroke="#253746" stroke-width="4" stroke-miterlimit="10"/>
<path d="M62.7002 63.7L73.1002 88L77.6002 78.9L87.0002 74.0999L62.7002 63.7Z" fill="#EE2737"/>
<path d="M74.1006 75.3999L83.1006 84.3999" stroke="#EE2737" stroke-width="4" stroke-miterlimit="10"/>
<path d="M66 36H50L54 32H70L66 36Z" fill="#253746"/>
<path d="M67 44H51L55 40H71L67 44Z" fill="#253746"/>
</svg>
