<svg width="84" height="67" viewBox="0 0 84 67" fill="none" xmlns="http://www.w3.org/2000/svg">
<path d="M84 66.9999H1V63.1175H80.0941V22.3528L84 16.5293V66.9999Z" fill="#253746"/>
<path d="M2.95312 67V2.94116H84.0002" stroke="#253746" stroke-width="4" stroke-miterlimit="10"/>
<path fill-rule="evenodd" clip-rule="evenodd" d="M1 1H84V12.6471H1V1ZM10.7647 4.88234H14.6706V8.76469H10.7647V4.88234ZM22.4824 4.88234H18.5765V8.76469H22.4824V4.88234ZM26.3882 4.88234H30.2941V8.76469H26.3882V4.88234Z" fill="#253746"/>
<path d="M49.8238 36.9119H35.1768V64.0883H49.8238V36.9119Z" fill="#253746"/>
<path d="M69.3531 42.7354H54.7061V64.0883H69.3531V42.7354Z" fill="#253746"/>
<path d="M30.2945 50.5H15.6475V64.0882H30.2945V50.5Z" fill="#253746"/>
<path d="M42.5001 16.5293L45.3642 21.9606L51.7766 22.8279L47.1383 27.0559L48.2399 33.0293L42.5001 30.2106L36.7603 33.0293L37.8619 27.0559L33.2236 22.8279L39.636 21.9606L42.5001 16.5293Z" fill="#EE2737"/>
</svg>
